<?xml version="1.0" standalone="no"?>
<!DOCTYPE svg PUBLIC "-//W3C//DTD SVG 20010904//EN"
 "http://www.w3.org/TR/2001/REC-SVG-20010904/DTD/svg10.dtd">
<svg version="1.0" xmlns="http://www.w3.org/2000/svg"
 width="1000.000000pt" height="1000.000000pt" viewBox="0 0 1000.000000 1000.000000"
 preserveAspectRatio="xMidYMid meet">

<g transform="translate(0.000000,1000.000000) scale(0.100000,-0.100000)"
fill="#000000" stroke="none">
<path d="M4110 9247 c-60 -29 -130 -100 -160 -164 -27 -58 -40 -64 -63 -30
-35 51 -98 107 -123 107 -14 0 -42 9 -62 19 -35 18 -92 19 -92 1 0 -4 -21 -23
-46 -43 -56 -44 -79 -85 -94 -167 -13 -71 -9 -90 19 -90 14 0 27 -13 40 -37
28 -55 77 -84 135 -82 65 3 80 -15 41 -47 -16 -13 -38 -24 -47 -24 -15 0 -68
-40 -68 -52 0 -8 51 -1 58 8 4 4 -2 4 -13 0 -15 -6 -17 -4 -8 5 9 9 18 7 41
-10 32 -23 47 -27 37 -11 -8 13 26 0 43 -17 7 -7 9 -13 4 -13 -5 0 -14 -12
-20 -26 -10 -20 -17 -24 -35 -19 -12 4 -28 14 -34 23 -7 9 -13 11 -13 5 0 -14
-201 -16 -233 -3 -18 7 -15 9 18 10 26 0 35 3 27 9 -17 10 -71 4 -88 -10 -8
-6 -25 -8 -40 -5 -17 5 -32 2 -43 -7 -9 -8 -59 -22 -111 -31 -52 -9 -126 -28
-165 -41 -38 -13 -70 -23 -71 -22 -24 54 -51 133 -87 257 -57 196 -80 256
-118 314 -52 77 -135 126 -215 126 -30 0 -38 -6 -63 -45 -33 -53 -47 -120 -57
-283 l-7 -113 39 7 c21 4 66 20 99 36 33 15 65 28 72 28 6 0 33 -55 59 -122
26 -68 65 -161 86 -206 21 -46 38 -86 38 -88 0 -1 -17 -11 -37 -21 -41 -19
-111 -86 -212 -202 -95 -109 -137 -126 -305 -125 -114 0 -130 2 -142 19 -8 10
-14 14 -14 8 0 -8 -44 -12 -142 -12 -210 -1 -613 -30 -778 -55 -50 -8 -217
-56 -277 -80 -153 -60 -253 -146 -292 -251 -20 -52 -22 -72 -17 -150 3 -49 8
-103 12 -119 6 -25 5 -28 -15 -21 -14 4 -31 -1 -50 -14 -16 -12 -36 -21 -43
-21 -8 0 -27 -13 -41 -30 -15 -16 -34 -30 -41 -30 -13 0 -46 -51 -46 -70 0 -4
9 -10 20 -13 26 -7 26 -37 0 -44 -24 -6 -27 -23 -4 -23 9 0 18 -9 21 -20 4
-13 14 -20 29 -20 30 0 41 -24 23 -47 -13 -15 -11 -16 12 -10 19 5 34 1 52
-13 14 -11 35 -20 47 -20 28 0 76 -26 89 -47 10 -17 10 -17 11 -1 0 20 33 41
46 29 5 -5 20 -12 32 -16 20 -6 23 -4 18 12 -7 24 66 99 86 87 22 -14 121 -12
156 2 28 11 43 11 95 0 136 -31 257 -40 530 -41 242 0 276 -2 271 -15 -3 -8
-13 -36 -21 -62 -9 -27 -20 -45 -26 -41 -6 3 -7 1 -3 -6 4 -6 -2 -32 -14 -56
-21 -43 -30 -49 -76 -48 -6 0 -9 -8 -7 -17 7 -27 -28 -42 -79 -34 -24 4 -48
11 -54 15 -11 9 -24 2 -24 -12 0 -4 9 -10 19 -14 27 -8 34 -49 16 -86 -16 -30
-27 -38 -62 -43 -14 -3 -17 -10 -15 -34 3 -33 -1 -35 -75 -47 -30 -5 -44 -12
-48 -26 -11 -32 -83 -79 -123 -79 -57 0 -113 -21 -122 -46 -5 -13 -18 -27 -28
-33 -16 -9 -19 -18 -15 -55 3 -25 2 -53 -2 -63 -4 -10 -9 -29 -10 -43 -1 -14
-6 -34 -9 -46 -6 -16 -1 -23 19 -32 14 -7 37 -9 51 -6 39 10 28 -12 -18 -38
-58 -31 -59 -60 -3 -70 22 -3 49 -9 60 -13 15 -4 28 2 49 24 21 22 39 31 62
31 30 0 34 -3 40 -35 8 -45 26 -45 69 1 26 28 40 35 57 31 13 -3 31 0 41 8 21
15 53 9 61 -12 5 -13 9 -13 22 -2 14 11 20 8 45 -21 15 -19 38 -61 50 -93 18
-49 20 -59 8 -75 -13 -15 -12 -16 3 -4 14 11 18 10 29 -10 28 -55 117 -161
173 -206 211 -169 475 -243 914 -256 110 -3 125 -6 143 -25 11 -11 23 -21 27
-21 4 0 23 -15 42 -32 33 -30 40 -33 105 -32 73 0 131 16 120 35 -5 7 -13 5
-24 -5 -23 -21 -32 -11 -24 27 4 21 3 28 -5 23 -7 -4 -12 -14 -12 -21 0 -9 -6
-12 -15 -9 -8 4 -15 13 -15 22 0 13 -2 13 -18 -1 -24 -22 -32 -21 -87 7 -43
21 -45 24 -23 29 46 13 67 9 61 -13 -4 -14 0 -20 11 -20 14 0 21 11 17 33 0 4
0 7 2 7 19 2 214 33 281 45 48 9 90 15 91 13 2 -2 11 -77 20 -168 17 -174 46
-390 71 -524 36 -206 47 -277 41 -283 -4 -3 -29 4 -56 16 -41 20 -52 21 -71
11 -35 -19 -116 -14 -148 9 -33 24 -97 37 -106 22 -4 -6 -22 -11 -39 -11 -28
0 -35 -6 -52 -42 -11 -22 -28 -43 -37 -46 -10 -2 -18 -8 -18 -13 0 -5 -13 -20
-29 -34 -25 -23 -27 -29 -17 -50 6 -13 21 -27 34 -30 43 -11 18 -29 -35 -26
-61 3 -76 -12 -41 -43 14 -11 30 -32 37 -45 12 -21 17 -23 64 -17 72 9 97 -9
80 -55 -7 -17 -10 -36 -7 -41 3 -5 32 -6 64 -2 38 4 60 3 64 -5 4 -6 17 -11
28 -11 27 0 58 -28 52 -45 -4 -8 3 -15 18 -17 17 -2 23 -10 24 -28 2 -47 4
-50 28 -50 37 0 56 -10 56 -31 0 -12 -9 -21 -25 -25 -21 -5 -45 -30 -45 -47 0
-5 47 -8 168 -9 72 -1 82 -3 82 -19 0 -10 5 -21 10 -24 15 -9 12 -201 -5 -338
-15 -118 -65 -346 -90 -417 -7 -19 -16 -43 -19 -52 -5 -16 -9 -16 -48 -2 -24
8 -48 22 -55 30 -13 17 -33 11 -33 -10 0 -7 -7 -27 -16 -44 -11 -23 -23 -32
-39 -32 -13 0 -27 -5 -31 -11 -3 -6 -17 -8 -30 -5 -24 6 -33 -7 -14 -19 17
-10 11 -54 -9 -66 -10 -7 -16 -20 -14 -29 3 -11 -9 -28 -31 -47 l-36 -30 27 4
c20 3 36 -4 56 -22 33 -31 34 -51 5 -76 l-23 -19 32 6 c25 5 34 3 39 -10 4
-10 2 -22 -5 -29 -18 -18 -13 -27 19 -27 27 0 30 -3 30 -32 0 -18 -11 -66 -24
-108 -65 -201 -105 -430 -113 -637 l-6 -162 39 -6 c150 -26 258 -68 492 -194
207 -110 260 -137 264 -130 2 2 13 25 26 50 13 25 63 96 112 158 165 206 174
230 175 456 0 160 1 172 23 208 26 41 48 50 38 15 -14 -49 -19 -315 -7 -396
14 -93 50 -206 85 -266 35 -60 131 -151 195 -185 124 -66 327 -95 541 -77 l85
7 0 272 c1 331 29 582 91 807 23 84 23 84 37 71 7 -5 26 -9 43 -8 25 2 30 -3
39 -30 5 -18 13 -33 18 -33 6 0 16 -8 23 -17 13 -17 15 -17 25 0 6 10 22 17
38 17 43 0 92 21 116 48 20 24 22 24 53 8 60 -31 69 -19 22 29 -39 40 -42 47
-32 69 6 13 8 33 5 44 -2 11 0 23 6 26 6 4 109 -9 228 -29 120 -20 301 -49
403 -66 155 -25 240 -44 240 -53 0 -5 71 -350 90 -436 77 -353 134 -619 138
-642 6 -37 72 -77 193 -116 121 -39 255 -54 449 -50 l155 3 5 44 5 44 272 -2
272 -2 16 37 c49 117 69 281 55 437 -12 133 -34 239 -105 527 -30 118 -63 265
-74 325 -25 137 -39 335 -23 335 6 0 16 -19 22 -42 24 -95 44 -142 70 -171
l28 -31 62 12 c144 30 247 109 306 236 19 41 34 82 34 91 0 8 -15 29 -34 45
-80 71 -101 189 -91 530 l7 245 -74 74 c-216 211 -514 353 -907 433 -143 28
-164 31 -184 18 -113 -72 -212 -103 -383 -118 -156 -14 -1669 -7 -1759 7 -96
16 -172 38 -221 63 l-41 21 -26 116 c-47 205 -102 544 -92 561 3 6 1 10 -4 10
-6 0 -11 16 -11 35 0 27 9 43 41 75 22 22 42 40 44 40 2 0 -2 -12 -10 -27 -8
-15 -11 -31 -8 -36 3 -6 1 -7 -5 -3 -8 5 -12 0 -12 -13 0 -12 -4 -21 -10 -21
-5 0 -7 -7 -4 -15 7 -18 55 -20 72 -3 10 10 15 10 22 -2 5 -8 12 -11 17 -7 4
5 1 12 -7 18 -13 8 -11 12 10 29 14 11 19 20 13 20 -7 0 -13 7 -13 16 0 8 5
12 10 9 6 -3 10 -2 10 4 0 5 7 17 16 25 21 22 -4 21 -28 -1 -10 -9 -19 -12
-19 -7 -7 49 -6 54 15 53 11 0 15 -3 9 -6 -24 -9 -13 -20 17 -15 23 3 30 0 30
-12 0 -10 5 -14 10 -11 19 12 11 45 -10 45 -12 0 -32 7 -45 16 -16 11 -25 12
-25 5 0 -7 -6 -11 -12 -10 -27 3 -38 -2 -38 -16 0 -8 -7 -15 -15 -15 -9 0 -18
-7 -21 -15 -7 -18 -63 -79 -68 -74 -2 2 -11 45 -20 94 -15 80 -15 91 -1 101
16 12 21 29 6 19 -13 -7 -18 2 -26 48 -6 30 -4 37 8 37 10 0 22 19 32 50 12
36 22 50 33 49 17 -3 81 28 113 53 9 7 16 24 15 37 -1 25 13 36 56 45 15 4 43
22 63 40 20 19 55 41 78 49 l42 14 16 84 c11 59 13 96 6 124 -5 22 -6 59 -3
82 6 45 -2 53 -52 53 -17 0 -41 14 -70 42 -39 39 -47 43 -89 41 l-45 -2 8 52
c10 68 12 467 2 488 -8 18 -23 362 -23 534 0 128 11 217 29 230 8 6 34 22 58
36 23 15 96 61 161 103 65 42 120 76 121 76 2 0 1 -11 -2 -25 -2 -14 -8 -25
-13 -25 -5 0 -9 -4 -9 -10 0 -5 9 -10 20 -10 25 0 26 -17 3 -43 -18 -20 -17
-20 15 -14 34 7 40 -1 20 -21 -10 -10 -10 -17 1 -34 10 -16 10 -23 2 -26 -6
-2 -11 -10 -11 -18 0 -8 -7 -17 -16 -21 -12 -4 -11 -8 8 -17 12 -6 24 -20 25
-31 2 -11 0 -14 -3 -7 -8 17 -31 15 -37 -2 -4 -9 2 -17 14 -21 13 -4 18 -12
15 -22 -3 -8 -6 -21 -6 -29 0 -8 -7 -14 -16 -14 -11 0 -14 -5 -10 -16 3 -9 6
-17 6 -19 0 -2 9 -1 20 2 22 6 72 -41 69 -66 -3 -29 1 -34 15 -22 19 16 30 -3
16 -28 -20 -39 17 -72 39 -33 9 14 10 13 11 -10 0 -16 -4 -28 -10 -28 -5 0
-10 -5 -10 -11 0 -17 29 9 45 41 8 15 15 47 16 71 3 52 14 79 34 79 19 0 55
48 55 74 0 33 78 103 123 112 37 6 39 8 33 40 -5 26 -3 34 13 39 11 3 31 3 45
-1 21 -5 26 -3 26 13 0 10 5 24 11 30 9 9 9 19 1 40 -6 15 -14 42 -17 60 -5
26 -15 35 -55 52 -27 12 -52 26 -55 31 -3 6 -17 10 -30 10 -13 0 -34 4 -47 10
-13 5 -72 13 -133 17 l-110 8 65 60 c428 394 571 598 573 815 1 127 -57 241
-157 307 -66 45 -116 58 -226 57 -254 -1 -574 -157 -1155 -565 -225 -158 -196
-145 -247 -113 -24 15 -98 54 -166 86 -67 32 -147 74 -177 93 -55 35 -55 35
-42 63 8 15 28 68 46 117 36 103 88 204 112 218 12 7 37 1 92 -21 42 -18 78
-32 81 -32 3 0 6 67 6 148 0 173 -15 240 -62 284 -36 33 -58 34 -118 5z m-294
-524 c-10 -10 -19 5 -10 18 6 11 8 11 12 0 2 -7 1 -15 -2 -18z m-16 -32 c0 -6
-4 -13 -10 -16 -5 -3 -10 1 -10 9 0 9 5 16 10 16 6 0 10 -4 10 -9z m-80 -31
c0 -5 -5 -10 -11 -10 -5 0 -7 5 -4 10 3 6 8 10 11 10 2 0 4 -4 4 -10z m60 -7
c0 -10 -20 -40 -20 -31 0 3 -3 13 -6 22 -4 11 -1 16 10 16 9 0 16 -3 16 -7z
m1934 -115 c-25 -83 -104 -178 -197 -236 -34 -21 -136 -76 -225 -122 -181 -92
-265 -157 -277 -213 -21 -98 -102 -189 -233 -262 l-72 -40 -29 -90 c-77 -236
-95 -336 -95 -530 l1 -160 -66 32 c-81 39 -151 52 -256 48 -100 -4 -162 -19
-244 -59 -68 -33 -156 -119 -167 -162 -8 -30 32 -101 78 -140 75 -63 251 -114
396 -114 86 0 265 20 272 31 3 4 14 9 25 11 43 7 60 -151 29 -280 -22 -94 -73
-197 -99 -197 -12 0 -21 8 -23 20 -2 11 -10 27 -16 35 -7 8 -18 34 -26 57 -7
24 -21 50 -32 59 -10 10 -18 23 -18 31 0 7 -4 13 -10 13 -5 0 -10 -8 -10 -19
0 -10 -7 -24 -15 -31 -15 -13 -19 -4 -18 38 1 16 -12 15 -31 -3 -15 -15 -45
-11 -58 9 -10 15 -19 2 -12 -18 4 -9 12 -15 20 -12 7 3 18 -2 24 -10 7 -8 10
-15 6 -15 -3 -1 -9 -2 -14 -3 -4 0 -20 -11 -36 -23 -29 -24 -20 -31 15 -13 13
7 19 7 19 0 0 -5 -4 -10 -10 -10 -14 0 -13 -26 3 -51 10 -18 9 -23 -10 -36
-13 -9 -23 -21 -23 -28 0 -14 -27 -28 -40 -20 -5 3 -12 0 -15 -5 -5 -8 -13 -6
-26 6 -10 9 -19 12 -19 6 0 -6 5 -14 10 -17 6 -3 10 -15 10 -25 0 -10 6 -20
13 -23 24 -8 -2 -19 -110 -44 -325 -75 -557 -107 -1000 -138 -206 -15 -224
-15 -247 1 -21 13 -24 19 -15 36 9 17 12 18 22 5 10 -13 15 -12 32 5 l20 20
-22 -6 c-17 -6 -23 -3 -23 8 0 9 -6 13 -13 10 -8 -3 -20 2 -27 11 -8 10 -9 15
-1 15 17 0 13 52 -6 75 -12 16 -14 16 -10 3 3 -10 2 -20 -3 -23 -6 -4 -10 -1
-10 4 0 6 -9 11 -21 11 -14 0 -19 5 -17 18 3 13 13 17 48 16 38 -1 42 0 23 9
-13 5 -23 18 -23 29 0 10 -7 19 -15 19 -28 3 -33 4 -41 11 -4 4 -18 5 -30 2
-15 -4 -24 -2 -24 5 0 6 9 11 20 11 11 0 20 7 20 15 0 18 46 42 58 30 4 -4 1
-10 -5 -12 -7 -3 -13 -12 -13 -21 0 -13 4 -12 23 6 18 19 20 24 8 32 -12 7
-13 15 -3 48 15 51 15 55 -3 48 -9 -3 -19 3 -25 14 -9 16 -8 20 5 20 13 0 14
4 5 20 -8 15 -7 26 6 47 16 27 16 27 -9 -2 l-26 -30 4 30 c2 17 4 32 5 35 2 3
2 8 1 13 -1 7 4 8 64 13 104 9 229 63 266 115 32 45 31 112 -3 170 -37 63
-104 108 -243 164 -26 10 -34 12 -141 23 -147 15 -256 -1 -367 -53 -59 -28
-127 -89 -127 -114 0 -8 -10 -25 -22 -38 -15 -17 -17 -22 -6 -18 12 5 17 -3
23 -41 5 -33 14 -53 31 -66 27 -22 32 -43 8 -34 -24 9 -42 -6 -18 -15 15 -7
13 -8 -10 -6 -30 2 -50 27 -22 27 9 0 16 7 16 15 0 10 -9 14 -30 12 -32 -2
-34 -10 -13 -62 4 -13 2 -16 -8 -13 -8 2 -16 15 -18 29 -3 22 -4 23 -11 4 -7
-18 -9 -18 -19 9 -6 16 -9 32 -5 35 4 3 9 0 11 -6 8 -21 20 -15 31 15 7 22 7
29 -3 29 -8 0 -11 -7 -7 -16 5 -14 3 -14 -11 -3 -15 13 -14 18 9 70 15 31 30
69 34 83 15 51 42 98 53 95 7 -1 9 -1 5 1 -13 8 -9 21 32 123 110 274 119 474
25 548 -40 32 -129 56 -181 48 -24 -3 -76 -22 -115 -42 -73 -36 -170 -56 -183
-36 -3 5 -13 42 -21 81 -8 39 -22 83 -31 97 -9 13 -15 27 -12 29 12 13 124 26
213 27 98 0 259 -17 280 -30 15 -9 242 -2 293 9 98 21 120 43 222 206 78 128
152 142 245 46 41 -42 43 -55 13 -83 -12 -11 -18 -20 -13 -20 5 0 17 8 28 17
18 17 19 17 33 -2 8 -11 21 -28 29 -37 10 -12 11 -19 3 -24 -5 -4 -13 -1 -17
5 -5 8 -13 5 -25 -8 -10 -11 -15 -25 -10 -32 4 -8 3 -10 -4 -5 -7 4 -12 14
-12 22 0 22 -11 17 -45 -21 -18 -19 -36 -31 -41 -27 -4 4 0 -5 9 -20 9 -15 17
-37 17 -49 0 -18 -2 -19 -15 -9 -8 7 -15 19 -15 26 0 23 -26 16 -40 -10 -7
-13 -21 -27 -31 -29 -11 -3 -19 -12 -19 -21 0 -9 -7 -16 -15 -16 -21 0 -19
-16 3 -24 9 -3 23 -9 31 -12 8 -4 11 -2 7 4 -3 6 -2 13 4 17 5 3 10 0 10 -7 0
-8 9 -21 20 -31 19 -16 23 -16 43 -2 33 23 40 18 18 -14 -24 -34 -26 -41 -8
-41 6 0 20 14 29 30 11 19 25 30 39 30 22 0 22 1 4 14 -11 8 -25 12 -32 9 -7
-3 -13 0 -13 6 0 6 -7 11 -15 11 -8 0 -15 4 -15 9 0 15 19 23 33 14 6 -4 26
-8 42 -8 22 0 30 -4 29 -17 -1 -10 4 -18 12 -18 20 0 17 37 -3 49 -10 6 -12
11 -5 11 15 0 16 52 2 66 -13 13 -2 46 14 41 6 -2 10 -15 8 -28 -3 -23 -2 -23
15 -6 14 14 15 21 6 36 -9 15 -9 23 1 36 12 16 14 16 47 -1 27 -14 56 -18 139
-17 156 1 249 36 551 209 149 86 185 97 232 73 12 -6 74 -62 137 -124 63 -63
127 -116 141 -120 48 -12 111 29 354 228 215 176 535 396 695 477 81 41 245
99 283 100 25 0 27 -3 21 -22z m-2161 -363 c101 -15 204 -39 215 -50 7 -7 -23
-30 -106 -78 -78 -45 -210 -90 -315 -107 -69 -11 -79 -11 -95 4 -10 9 -23 16
-28 17 -5 0 -26 23 -47 50 -21 27 -49 54 -63 59 -37 15 -26 31 47 68 102 52
221 63 392 37z m-555 -497 c-6 -18 -28 -21 -28 -4 0 9 7 16 16 16 9 0 14 -5
12 -12z m48 -49 c3 -6 0 -17 -7 -25 -12 -11 -14 -9 -15 11 -2 26 10 33 22 14z
m-1538 -23 c53 -28 92 -87 92 -140 0 -29 -33 -36 -181 -36 -82 0 -129 6 -205
25 -101 27 -185 63 -188 80 -1 13 153 66 181 62 12 -2 24 0 25 5 5 13 124 27
191 22 32 -2 70 -10 85 -18z m-590 -516 c3 -9 -1 -11 -12 -7 -10 4 -22 7 -27
7 -6 0 -8 4 -5 9 8 13 39 7 44 -9z m860 -315 c-8 -19 -14 -22 -20 -13 -11 18
-10 30 2 23 6 -3 10 -1 10 4 0 6 4 11 10 11 6 0 5 -10 -2 -25z m2612 -27 c94
-29 99 -33 55 -48 -38 -13 -71 -11 -222 12 -74 11 -75 11 -55 30 40 41 105 42
222 6z m-2647 -23 c-5 -25 -7 -26 -13 -10 -4 11 -2 25 4 31 15 16 15 14 9 -21z
m-78 5 c3 -5 2 -10 -4 -10 -5 0 -13 5 -16 10 -3 6 -2 10 4 10 5 0 13 -4 16
-10z m1107 -92 c68 -22 83 -41 25 -33 -18 2 -67 7 -110 10 -42 4 -75 11 -71
16 3 5 1 9 -5 9 -5 0 -11 -4 -13 -9 -1 -4 -23 -5 -48 -2 l-45 6 32 14 c18 7
44 11 57 9 14 -3 30 -1 37 3 16 10 56 3 141 -23z m-1062 2 c0 -5 -2 -10 -4
-10 -3 0 -8 5 -11 10 -3 6 -1 10 4 10 6 0 11 -4 11 -10z m-39 -104 c-7 -8 -9
-21 -5 -27 5 -8 2 -10 -8 -6 -11 4 -18 -2 -23 -16 -3 -12 -9 -17 -11 -10 -7
16 25 75 36 68 6 -4 10 -1 10 6 0 7 3 9 6 6 4 -4 1 -13 -5 -21z m-97 -12 c5
-14 4 -15 -9 -4 -17 14 -19 20 -6 20 5 0 12 -7 15 -16z m-33 -33 c-8 -5 -11
-16 -6 -30 4 -13 1 -27 -9 -37 -13 -12 -13 -19 -3 -37 6 -12 13 -23 14 -25 1
-2 13 4 27 13 30 20 36 69 10 79 -19 7 -11 22 17 29 14 4 19 2 15 -8 -2 -7 -1
-26 4 -42 l8 -28 1 28 c1 16 7 27 15 27 8 0 17 6 20 13 4 6 4 -3 1 -22 -3 -18
-5 -64 -5 -101 0 -53 -3 -69 -16 -74 -13 -5 -15 -1 -12 19 3 14 2 25 -3 25 -4
0 -12 12 -17 28 l-10 27 -1 -27 c-1 -15 4 -30 9 -33 6 -3 10 -19 10 -35 0 -23
4 -28 20 -25 16 3 20 -2 20 -26 0 -24 -4 -29 -23 -29 -13 0 -28 -5 -34 -11
-13 -13 -33 -4 -33 17 0 9 10 14 28 14 23 1 24 2 10 11 -10 5 -18 17 -18 24 0
8 -9 15 -20 15 -22 0 -26 20 -8 38 17 17 -30 52 -62 46 -14 -3 -34 1 -45 10
-19 14 -18 15 18 9 23 -3 37 -2 37 5 0 6 -6 12 -12 15 -10 3 -10 8 1 21 17 20
7 33 -13 17 -8 -7 -17 -8 -20 -3 -8 14 31 45 48 39 8 -3 16 2 19 14 3 10 11
19 19 19 11 0 11 -2 -1 -9z m789 -35 c0 -3 -4 -8 -10 -11 -5 -3 -10 -1 -10 4
0 6 5 11 10 11 6 0 10 -2 10 -4z m-150 -47 c0 -5 -7 -9 -15 -9 -15 0 -20 12
-9 23 8 8 24 -1 24 -14z m468 -39 c11 -17 10 -23 -3 -37 -15 -14 -15 -13 -9
11 6 24 4 26 -29 26 -20 0 -39 5 -42 10 -4 6 9 10 32 10 28 0 42 -6 51 -20z
m-1242 -27 c-10 -10 -34 11 -29 24 5 14 8 13 20 -2 7 -10 11 -20 9 -22z m1187
-3 c-3 -11 -9 -20 -14 -20 -4 0 -7 9 -6 20 1 11 7 20 13 20 7 0 10 -8 7 -20z
m136 1 c7 -5 10 -14 7 -20 -8 -13 -46 3 -46 19 0 12 20 13 39 1z m-1200 -28
c-12 -14 -40 -16 -78 -6 -23 6 -23 7 -5 14 10 4 36 7 56 7 30 -1 36 -4 27 -15z
m1199 -43 c8 -22 7 -33 -5 -47 -13 -17 -14 -16 -9 14 4 26 1 35 -15 43 -11 6
-17 15 -14 20 10 16 33 0 43 -30z m-1180 -33 c9 -3 5 -4 -10 -4 -16 1 -28 2
-28 3 0 1 3 11 7 21 7 16 8 16 11 1 2 -9 11 -19 20 -21z m1227 -50 c1 -25 -4
-37 -13 -37 -8 0 -21 -9 -30 -20 -23 -27 -72 -38 -72 -16 0 9 7 16 15 16 9 0
30 7 47 16 26 13 29 20 25 44 -6 29 0 43 17 37 6 -2 11 -20 11 -40z m-1230 3
c-3 -5 -13 -10 -21 -10 -8 0 -14 5 -14 10 0 6 9 10 21 10 11 0 17 -4 14 -10z
m-40 -30 c3 -6 -1 -13 -10 -16 -19 -8 -30 0 -20 15 8 14 22 14 30 1z m1211 -2
c-8 -4 -25 -4 -38 1 -20 8 -18 9 15 8 24 -1 32 -4 23 -9z m-1069 -10 c-2 -7
-11 -13 -20 -13 -8 0 -19 -4 -23 -8 -11 -10 -24 -9 -24 3 0 11 35 28 58 29 8
1 12 -5 9 -11z m-192 -8 c-3 -5 -11 -10 -16 -10 -6 0 -7 5 -4 10 3 6 11 10 16
10 6 0 7 -4 4 -10z m2885 -70 c0 -5 -4 -10 -10 -10 -5 0 -10 -7 -10 -17 0 -9
-3 -14 -6 -10 -8 8 5 47 17 47 5 0 9 -4 9 -10z m-2100 -15 c7 -8 10 -22 6 -30
-3 -8 -3 -29 1 -45 4 -24 10 -29 24 -25 21 7 69 -40 69 -67 0 -13 8 -18 30
-18 17 0 30 -5 30 -10 0 -6 9 -5 21 2 18 11 23 10 36 -9 9 -13 22 -23 31 -23
17 0 52 -28 52 -42 0 -12 -41 -10 -114 7 -135 32 -231 91 -290 179 -43 65 -46
85 -12 79 13 -3 27 0 30 6 10 16 72 13 86 -4z m526 -41 c-4 -9 -9 -15 -11 -12
-3 3 -3 13 1 22 4 9 9 15 11 12 3 -3 3 -13 -1 -22z m2030 -448 c7 -18 -14 -58
-27 -51 -16 10 -11 65 6 65 9 0 18 -6 21 -14z m-396 -194 c5 -48 12 -107 16
-131 6 -38 5 -43 -11 -40 -10 2 -27 17 -39 32 -17 24 -22 46 -24 129 -3 76 -1
103 10 110 10 7 10 11 1 15 -8 2 -13 21 -12 41 l1 37 25 -53 c16 -35 27 -82
33 -140z m499 139 c39 -36 33 -55 -19 -59 l-40 -2 0 38 c0 61 13 66 59 23z
m-797 -9 c10 -9 20 -39 23 -67 3 -27 10 -89 15 -138 11 -102 37 -167 88 -220
42 -43 124 -77 187 -77 24 0 47 -4 50 -10 3 -5 31 -157 61 -337 31 -180 64
-380 75 -443 11 -63 24 -141 29 -174 5 -32 10 -59 12 -61 10 -8 193 -87 243
-105 152 -55 230 -73 376 -85 l66 -6 53 -157 c114 -342 204 -455 360 -455 172
0 268 135 413 580 9 29 14 32 64 39 30 3 206 1 391 -5 395 -14 506 -7 666 38
214 61 266 37 361 -164 28 -61 65 -126 82 -145 l31 -35 -6 -203 -5 -202 -51
49 c-28 27 -76 69 -106 92 -30 23 -92 76 -138 117 -45 41 -85 72 -89 69 -3 -4
6 -16 21 -28 18 -15 26 -28 23 -41 -4 -15 -1 -18 16 -12 21 6 21 5 -1 -11 -18
-13 -26 -14 -37 -5 -10 8 -15 9 -15 2 0 -6 8 -16 18 -21 15 -9 15 -10 1 -11
-21 0 -45 -26 -29 -32 6 -2 8 -11 4 -21 -5 -15 -13 -13 -73 19 -193 107 -190
106 -271 102 -172 -8 -252 -97 -355 -393 -21 -60 -42 -111 -46 -113 -4 -2 -4
-12 -1 -24 4 -18 2 -20 -24 -15 -54 12 -148 26 -394 62 -236 35 -471 75 -763
131 -76 15 -140 24 -143 22 -2 -3 -27 -72 -55 -154 -29 -82 -65 -187 -81 -234
-95 -277 -165 -650 -169 -896 -1 -56 -4 -107 -8 -113 -9 -14 -77 52 -100 98
-37 73 -46 140 -44 311 1 91 5 183 8 205 4 22 8 271 11 553 4 431 2 513 -9
510 -8 -2 -74 -70 -148 -153 -73 -82 -136 -152 -140 -155 -4 -3 -23 -25 -43
-48 -20 -24 -36 -40 -36 -35 0 4 -6 -1 -12 -12 -7 -11 -34 -48 -61 -83 -38
-48 -52 -60 -59 -50 -7 9 -8 8 -4 -6 8 -24 -30 -67 -51 -59 -12 5 -14 1 -8
-15 4 -13 2 -22 -4 -22 -6 0 -10 -3 -10 -7 3 -19 -2 -33 -11 -33 -5 0 -7 7 -4
15 4 8 1 15 -5 15 -6 0 -11 7 -11 16 0 9 -5 12 -11 8 -8 -5 -10 3 -7 25 2 17
1 31 -4 31 -5 0 -7 4 -4 9 3 5 0 14 -8 20 -11 9 -15 9 -20 -1 -3 -7 -4 -2 -3
12 1 17 9 26 25 28 12 2 22 -1 22 -7 0 -6 7 -11 15 -11 8 0 15 5 15 11 0 5 -5
7 -12 3 -7 -5 -9 -2 -5 9 4 12 2 15 -11 10 -9 -3 5 15 33 40 27 24 55 42 62
40 11 -4 18 14 14 39 0 4 15 34 33 67 19 33 37 70 41 83 4 13 12 29 18 36 6 7
12 25 13 40 6 64 5 152 -1 171 -5 16 -1 23 19 31 34 13 33 19 -3 15 -22 -3
-33 2 -45 20 -23 35 -20 45 14 45 20 0 30 -5 30 -15 0 -8 4 -15 10 -15 5 0 7
6 4 13 -2 7 9 27 26 44 24 24 27 32 15 37 -27 10 -17 29 13 22 26 -6 26 -6 8
9 -15 11 -17 18 -9 26 6 6 9 18 6 26 -3 7 5 22 17 33 20 18 21 21 6 35 -9 9
-19 27 -22 41 -4 14 -13 24 -24 24 -10 0 -20 6 -23 13 -4 10 -7 10 -18 0 -15
-15 -53 -17 -44 -3 3 6 1 10 -4 10 -6 0 -11 7 -11 15 0 14 3 14 31 0 28 -15
30 -15 27 2 -2 13 4 18 26 20 41 3 58 11 51 23 -4 6 7 10 26 10 l33 0 -22 20
c-24 23 -33 25 -30 8 2 -7 -4 -13 -12 -13 -9 0 -14 7 -12 18 5 27 -27 20 -34
-8 -9 -34 -28 -47 -59 -39 -23 6 -25 8 -11 16 9 5 24 8 33 6 10 -2 17 2 15 10
-1 6 3 12 9 12 12 0 6 27 -17 78 -14 30 -27 37 -64 34 -31 -3 -71 10 -67 21 3
7 -6 13 -19 13 -13 1 -24 -2 -24 -7 0 -5 -7 -9 -15 -9 -8 0 -15 5 -15 11 0 5
-5 7 -11 4 -6 -4 -10 -1 -8 6 3 29 -2 39 -21 39 -13 0 -20 7 -20 19 0 11 -8
27 -17 36 -16 16 -17 16 -30 -1 -7 -10 -13 -28 -13 -41 0 -16 -4 -21 -15 -17
-26 10 -14 77 15 80 5 1 15 2 20 3 6 0 10 7 10 15 0 17 -34 14 -55 -4 -10 -8
-14 -1 -17 32 -3 24 -1 49 5 56 6 8 6 12 -2 12 -21 0 -11 18 17 29 l27 11 -28
-5 c-19 -4 -26 -2 -22 5 3 5 1 10 -6 10 -8 0 -10 14 -7 45 3 25 1 45 -4 45 -9
0 -10 12 -11 120 0 30 -2 48 -5 40 -8 -22 -38 152 -72 418 -39 305 -62 544
-53 553 5 4 31 17 58 28 54 22 90 20 117 -7z m-928 -216 c13 3 27 1 30 -5 12
-19 -70 -13 -85 6 -13 15 -12 15 8 4 13 -6 33 -9 47 -5z m347 -869 c-10 -9
-11 -8 -5 6 3 10 9 15 12 12 3 -3 0 -11 -7 -18z m53 -19 l6 -23 14 24 c9 17
14 20 18 9 7 -18 -15 -48 -36 -48 -15 0 -18 -4 -20 -32 -1 -14 -21 -38 -31
-38 -4 0 -5 7 -2 14 4 10 1 13 -8 10 -8 -3 -22 -1 -32 5 -15 9 -13 10 13 11
21 0 34 6 38 18 3 9 9 23 12 31 5 10 1 11 -15 6 -12 -4 -21 -2 -21 4 0 6 9 11
20 11 11 0 20 5 20 10 0 19 18 10 24 -12z m-139 -24 c-17 -12 -18 -16 -5 -24
8 -5 12 -11 9 -15 -9 -9 -42 33 -34 44 3 6 16 11 28 11 22 -1 22 -1 2 -16z
m219 -25 c-1 -8 -5 -23 -10 -34 -7 -17 -6 -18 8 -7 13 10 17 10 22 -4 4 -10 1
-21 -6 -26 -9 -5 -10 -10 -2 -15 16 -12 24 -51 10 -56 -7 -3 -5 -11 7 -24 19
-21 24 -98 7 -108 -16 -10 -12 -35 6 -35 24 0 10 -25 -14 -26 -17 -1 -22 4
-22 25 0 15 -5 32 -12 39 -9 9 -8 12 8 13 10 1 22 1 27 0 4 0 7 4 7 9 0 10
-13 14 -42 11 -9 -1 -19 3 -23 9 -3 5 1 10 9 10 9 0 16 5 16 10 0 6 -3 10 -7
10 -11 0 -53 -43 -53 -54 0 -6 5 -4 11 4 9 12 10 12 5 -4 -5 -13 -2 -17 9 -12
17 6 21 -9 4 -20 -6 -3 -14 -2 -18 4 -3 6 -18 13 -33 17 -15 4 -29 13 -32 21
-3 8 -14 14 -25 14 -24 0 -37 18 -23 32 8 8 16 8 26 -1 9 -7 21 -11 28 -8 8 3
5 6 -6 6 -15 1 -17 6 -12 31 4 22 2 30 -9 30 -22 0 -18 18 5 25 11 3 20 11 20
16 0 6 -5 7 -10 4 -6 -4 -17 -2 -25 5 -9 7 -15 8 -20 0 -3 -5 -1 -10 6 -10 7
0 10 -2 7 -5 -9 -9 -39 7 -36 19 1 6 -3 21 -10 33 -11 20 -10 22 5 16 10 -3
25 -12 34 -20 12 -10 28 -12 53 -8 29 6 36 4 36 -9 0 -19 20 -22 20 -3 0 6 9
23 19 36 10 13 16 33 13 44 -4 14 -1 18 9 15 8 -3 13 -11 13 -19z m-164 -143
c0 -10 -7 -12 -21 -9 -19 5 -21 3 -15 -20 3 -14 2 -29 -4 -32 -14 -9 -13 48 2
63 16 16 38 15 38 -2z m-75 -56 c-3 -5 -13 -10 -21 -10 -8 0 -14 5 -14 10 0 6
9 10 21 10 11 0 17 -4 14 -10z m77 -57 c-6 -3 -10 -9 -7 -13 3 -5 12 -7 20 -3
9 3 15 -1 15 -11 0 -18 -15 -22 -25 -6 -3 6 -18 10 -33 10 l-27 0 30 19 c17
10 32 16 35 13 3 -2 -1 -7 -8 -9z m683 -73 c-5 -15 -10 -19 -17 -12 -5 5 -7
20 -3 32 5 15 10 19 17 12 5 -5 7 -20 3 -32z m-525 16 c0 -3 -4 -8 -10 -11 -5
-3 -10 -1 -10 4 0 6 5 11 10 11 6 0 10 -2 10 -4z m11 -81 c-1 -15 -24 -12 -29
3 -3 9 2 13 12 10 10 -1 17 -7 17 -13z m689 -51 c0 -8 5 -14 12 -14 13 0 58
-48 58 -62 0 -4 -4 -8 -10 -8 -5 0 -10 5 -10 10 0 6 -7 10 -15 10 -10 0 -15 7
-13 18 2 12 -4 17 -19 17 -13 0 -23 3 -23 8 -1 38 1 47 10 42 6 -3 10 -13 10
-21z m55 5 c-32 -9 -47 -3 -26 10 7 5 23 6 35 3 19 -5 18 -6 -9 -13z m-85 1
c0 -5 -2 -10 -4 -10 -3 0 -8 5 -11 10 -3 6 -1 10 4 10 6 0 11 -4 11 -10z m130
-29 c0 -5 3 -16 6 -25 4 -11 1 -16 -10 -16 -9 0 -16 7 -16 15 0 8 -7 15 -16
15 -8 0 -12 5 -9 10 8 13 45 13 45 1z m1510 -107 c0 -48 -173 -404 -196 -404
-23 0 -101 77 -129 129 -21 36 -105 259 -105 277 0 2 97 4 215 4 118 0 215 -3
215 -6z m-1490 -84 c-8 -5 -11 -10 -7 -10 5 0 5 -5 1 -11 -4 -7 -10 -7 -16 -1
-13 13 -1 32 20 32 15 0 15 -2 2 -10z m58 -56 c2 -1 -10 -10 -26 -19 -18 -11
-28 -24 -25 -34 2 -9 -3 -25 -11 -36 -12 -16 -17 -17 -27 -8 -10 10 -9 14 5
19 13 5 16 13 10 37 -5 25 -4 29 10 24 13 -5 16 0 16 25 l0 31 23 -19 c12 -10
23 -20 25 -20z m3622 -20 c12 -24 16 -89 18 -351 3 -213 0 -323 -6 -323 -18 0
-62 107 -71 172 -9 65 -3 137 23 298 18 109 21 196 6 205 -14 9 -12 37 3 33 6
-3 19 -18 27 -34z m-3672 -128 l4 -28 -22 20 c-12 11 -19 26 -15 32 11 19 30
5 33 -24z m-114 -3 c4 -5 24 -8 43 -8 49 0 54 -21 6 -22 -40 -1 -73 11 -73 27
0 12 14 13 24 3z m-279 -343 c4 -6 2 -17 -5 -24 -6 -8 -10 -30 -8 -50 2 -33
-15 -67 -27 -54 -12 11 8 138 21 138 7 0 16 -5 19 -10z m3037 -31 c51 -35 128
-101 128 -111 0 -4 -11 -8 -25 -8 -14 0 -25 -5 -25 -11 0 -5 -4 -7 -10 -4 -5
3 -10 2 -10 -3 0 -6 7 -12 15 -16 8 -3 15 -10 15 -16 0 -6 -4 -9 -9 -5 -5 3
-13 -4 -16 -15 -5 -17 -9 -19 -21 -9 -25 20 -27 2 -5 -34 23 -37 28 -82 10
-93 -14 -8 -359 -13 -359 -5 0 9 24 74 31 86 4 6 14 37 23 70 28 101 60 155
110 187 40 25 100 19 148 -13z m642 -301 c20 -99 57 -381 52 -394 -4 -9 0 -24
7 -33 23 -27 146 -662 147 -758 0 -44 -90 -21 -124 32 -33 50 -45 105 -61 268
-8 89 -31 254 -50 367 -47 275 -51 322 -31 389 9 30 16 65 16 77 0 31 17 74
30 74 5 0 12 -10 14 -22z m-4213 -21 c-8 -8 -14 -8 -23 1 -9 9 -8 12 5 12 9 0
17 6 18 13 0 9 2 8 6 -1 3 -8 0 -19 -6 -25z m3919 9 c0 -2 -7 -6 -15 -10 -8
-3 -15 -1 -15 4 0 6 7 10 15 10 8 0 15 -2 15 -4z m-3934 -53 c-10 -10 -19 5
-10 18 6 11 8 11 12 0 2 -7 1 -15 -2 -18z m620 -20 c7 -10 14 -27 14 -39 0
-11 9 -39 20 -62 11 -22 20 -53 20 -68 0 -15 -24 -77 -54 -138 -92 -190 -151
-393 -164 -575 l-7 -86 -37 1 c-24 1 -62 17 -115 48 -43 26 -90 50 -105 53
-24 5 -28 11 -28 39 0 95 78 339 178 554 11 25 36 91 54 147 l33 102 55 20
c71 25 119 26 136 4z m-711 -51 c-8 -8 -25 10 -19 20 4 6 9 5 15 -3 4 -7 6
-15 4 -17z m3857 -212 c22 -141 22 -147 -4 -156 -36 -11 -87 -56 -104 -92 -21
-44 -12 -89 25 -130 28 -30 34 -32 96 -32 80 0 78 3 101 -173 17 -128 14 -278
-6 -349 -12 -43 -12 -43 -48 -24 -66 34 -103 105 -126 236 -39 226 -129 679
-161 806 -5 21 -2 21 103 20 l107 -1 17 -105z m-1737 90 c3 -5 1 -10 -4 -10
-6 0 -11 5 -11 10 0 6 2 10 4 10 3 0 8 -4 11 -10z m105 -21 c11 -6 8 -8 -12
-9 -16 0 -28 -4 -28 -10 0 -5 -7 -10 -16 -10 -14 0 -14 3 -4 15 9 10 9 15 1
15 -6 0 -11 5 -11 10 0 11 43 4 70 -11z m0 -28 c0 -6 -4 -13 -10 -16 -5 -3
-10 1 -10 9 0 9 5 16 10 16 6 0 10 -4 10 -9z m-145 -90 c3 -5 1 -12 -5 -16 -5
-3 -10 1 -10 9 0 18 6 21 15 7z m272 -38 c-3 -3 -11 -2 -17 2 -9 6 -9 10 1 16
14 8 27 -7 16 -18z m-97 -61 c0 -13 -12 -22 -22 -16 -10 6 -1 24 13 24 5 0 9
-4 9 -8z"/>
<path d="M2946 7765 c-11 -8 -16 -18 -13 -22 4 -3 16 3 27 15 23 25 15 29 -14
7z"/>
<path d="M2970 7740 c0 -5 5 -10 10 -10 6 0 10 5 10 10 0 6 -4 10 -10 10 -5 0
-10 -4 -10 -10z"/>
<path d="M3116 7615 c-3 -8 -1 -15 4 -15 6 0 10 7 10 15 0 8 -2 15 -4 15 -2 0
-6 -7 -10 -15z"/>
<path d="M3146 7603 c-6 -14 -5 -15 5 -6 7 7 10 15 7 18 -3 3 -9 -2 -12 -12z"/>
<path d="M2790 7580 c-12 -8 -9 -10 13 -10 16 0 26 4 22 10 -8 12 -16 12 -35
0z"/>
<path d="M2815 7501 c-3 -5 -1 -12 5 -16 12 -7 30 2 30 16 0 12 -27 12 -35 0z"/>
<path d="M2876 7493 c-3 -3 2 -16 10 -28 14 -21 14 -24 -3 -28 -15 -4 -14 -5
3 -6 19 -1 33 20 34 50 0 9 -37 18 -44 12z"/>
<path d="M3679 7463 c-71 -37 -107 -88 -122 -176 -8 -51 -8 -81 1 -124 23
-109 72 -178 154 -213 41 -18 57 -20 93 -12 62 13 110 55 145 126 79 162 49
356 -63 410 -56 26 -143 21 -208 -11z m118 -118 c32 -22 37 -65 17 -156 -20
-93 -34 -99 -71 -30 -27 51 -30 115 -9 166 16 38 30 43 63 20z"/>
<path d="M3017 7453 c-4 -6 -25 -14 -46 -18 -56 -9 -117 -59 -149 -119 -23
-44 -26 -63 -27 -141 0 -80 3 -96 29 -145 55 -107 113 -145 208 -138 69 5 99
24 145 92 121 177 55 456 -107 456 -21 0 -40 5 -42 12 -3 9 -6 9 -11 1z m2
-174 c45 -16 53 -44 38 -134 -9 -58 -15 -75 -28 -75 -9 0 -22 6 -29 14 -17 21
-32 206 -16 206 2 0 18 -5 35 -11z"/>
<path d="M2715 7050 c-3 -5 -1 -10 4 -10 6 0 11 5 11 10 0 6 -2 10 -4 10 -3 0
-8 -4 -11 -10z"/>
<path d="M2186 6592 c-6 -10 -2 -39 7 -48 4 -4 7 7 7 24 0 32 -4 39 -14 24z"/>
<path d="M4565 6400 c-3 -6 1 -7 9 -4 18 7 21 14 7 14 -6 0 -13 -4 -16 -10z"/>
<path d="M3674 6359 c-51 -57 -126 -63 -282 -22 -81 21 -111 24 -139 17 -43
-11 -71 -45 -79 -96 -8 -45 16 -68 110 -110 163 -72 397 -54 505 38 45 39 49
56 23 96 -17 25 -100 98 -113 98 -3 0 -14 -9 -25 -21z"/>
<path d="M4535 6360 c3 -5 8 -10 11 -10 2 0 4 5 4 10 0 6 -5 10 -11 10 -5 0
-7 -4 -4 -10z"/>
<path d="M4349 6343 c-13 -16 -12 -17 4 -4 16 13 21 21 13 21 -2 0 -10 -8 -17
-17z"/>
<path d="M4435 6330 c3 -5 8 -10 11 -10 2 0 4 5 4 10 0 6 -5 10 -11 10 -5 0
-7 -4 -4 -10z"/>
<path d="M2814 6286 c-5 -14 42 -73 51 -64 10 10 -6 36 -26 41 -13 3 -17 11
-13 21 3 9 3 16 0 16 -4 0 -9 -6 -12 -14z"/>
<path d="M4248 6224 c2 -14 9 -23 15 -21 19 6 19 25 -1 36 -17 9 -18 7 -14
-15z"/>
<path d="M2843 6193 c9 -15 46 -23 53 -12 3 5 -1 9 -10 9 -8 0 -22 3 -32 7
-11 4 -15 3 -11 -4z"/>
<path d="M4224 6165 c1 -8 5 -18 9 -21 11 -11 8 -46 -2 -39 -17 10 -21 -12 -6
-25 8 -7 15 -22 16 -34 0 -14 2 -16 6 -6 4 8 15 21 26 30 24 19 16 56 -14 65
-10 4 -19 13 -19 20 0 8 -4 16 -9 19 -5 4 -8 -1 -7 -9z"/>
<path d="M2928 6153 c7 -3 16 -2 19 1 4 3 -2 6 -13 5 -11 0 -14 -3 -6 -6z"/>
<path d="M2856 6124 c-9 -24 -2 -26 12 -4 7 11 8 20 3 20 -5 0 -12 -7 -15 -16z"/>
<path d="M2876 6085 c-3 -8 -1 -15 4 -15 6 0 10 7 10 15 0 8 -2 15 -4 15 -2 0
-6 -7 -10 -15z"/>
<path d="M2820 6065 c0 -8 7 -15 15 -15 9 0 12 6 9 15 -4 8 -10 15 -15 15 -5
0 -9 -7 -9 -15z"/>
<path d="M4210 6055 c0 -8 5 -15 10 -15 6 0 10 7 10 15 0 8 -4 15 -10 15 -5 0
-10 -7 -10 -15z"/>
<path d="M3030 5829 c0 -5 5 -7 10 -4 6 3 10 8 10 11 0 2 -4 4 -10 4 -5 0 -10
-5 -10 -11z"/>
<path d="M1580 6300 c0 -5 5 -10 11 -10 5 0 7 5 4 10 -3 6 -8 10 -11 10 -2 0
-4 -4 -4 -10z"/>
<path d="M4075 5440 c3 -5 8 -10 11 -10 2 0 4 5 4 10 0 6 -5 10 -11 10 -5 0
-7 -4 -4 -10z"/>
<path d="M4040 4580 c0 -5 5 -10 10 -10 6 0 10 5 10 10 0 6 -4 10 -10 10 -5 0
-10 -4 -10 -10z"/>
<path d="M4210 4559 c0 -5 5 -7 10 -4 6 3 10 8 10 11 0 2 -4 4 -10 4 -5 0 -10
-5 -10 -11z"/>
<path d="M4085 4550 c-3 -5 1 -10 9 -10 8 0 18 5 21 10 3 6 -1 10 -9 10 -8 0
-18 -4 -21 -10z"/>
<path d="M4486 4553 c-3 -3 4 -14 16 -25 12 -10 23 -16 25 -14 3 2 -4 13 -15
24 -11 11 -23 18 -26 15z"/>
<path d="M4160 4540 c-24 -8 -23 -8 8 -9 17 -1 32 4 32 9 0 11 -5 11 -40 0z"/>
<path d="M4071 4504 c0 -11 3 -14 6 -6 3 7 2 16 -1 19 -3 4 -6 -2 -5 -13z"/>
<path d="M4295 4512 c-11 -2 -28 -11 -37 -19 -9 -8 -23 -12 -30 -8 -10 6 -10
5 -2 -4 9 -10 17 -10 32 -2 11 6 28 8 38 4 11 -4 15 -3 11 4 -4 6 -1 13 5 16
19 7 6 14 -17 9z"/>
<path d="M4083 4483 c-16 -6 -17 -29 -1 -39 7 -5 8 -3 4 5 -5 7 0 18 10 26 19
14 11 18 -13 8z"/>
<path d="M4330 4469 c0 -5 5 -7 10 -4 6 3 10 8 10 11 0 2 -4 4 -10 4 -5 0 -10
-5 -10 -11z"/>
<path d="M4150 4400 c0 -5 5 -10 10 -10 6 0 10 5 10 10 0 6 -4 10 -10 10 -5 0
-10 -4 -10 -10z"/>
<path d="M4200 4390 c0 -5 5 -10 10 -10 6 0 10 5 10 10 0 6 -4 10 -10 10 -5 0
-10 -4 -10 -10z"/>
<path d="M4241 4385 c-1 -14 6 -21 19 -22 11 -1 20 2 20 8 0 5 -6 9 -14 9 -8
0 -17 6 -19 13 -3 6 -6 3 -6 -8z"/>
<path d="M4119 4371 c6 -10 7 -21 4 -25 -3 -3 3 -6 15 -6 12 0 22 5 22 10 0 6
-7 10 -15 10 -8 0 -15 7 -15 15 0 8 -5 15 -10 15 -7 0 -7 -6 -1 -19z"/>
<path d="M4233 4324 c0 -16 6 -17 25 -5 11 6 9 9 -5 13 -12 3 -20 0 -20 -8z"/>
<path d="M4281 4313 c0 -6 -4 -20 -7 -30 -5 -14 -4 -15 5 -7 7 7 11 20 8 30
-3 11 -5 14 -6 7z"/>
<path d="M4176 4293 c-6 -14 -5 -15 5 -6 7 7 10 15 7 18 -3 3 -9 -2 -12 -12z"/>
<path d="M4111 4291 c-10 -7 -10 -10 -1 -16 6 -4 16 -3 22 3 13 13 -4 23 -21
13z"/>
<path d="M4203 4275 c-9 -25 2 -27 22 -5 17 18 17 20 1 20 -9 0 -19 -7 -23
-15z"/>
<path d="M4162 4230 c0 -14 2 -19 5 -12 2 6 2 18 0 25 -3 6 -5 1 -5 -13z"/>
<path d="M4220 4224 c0 -8 5 -12 10 -9 6 3 10 10 10 16 0 5 -4 9 -10 9 -5 0
-10 -7 -10 -16z"/>
<path d="M4113 4183 c-3 -10 -8 -21 -10 -25 -2 -5 5 -8 16 -8 15 0 19 4 14 18
-6 15 -5 15 10 3 9 -7 17 -9 17 -5 0 5 -9 15 -20 22 -17 11 -21 10 -27 -5z"/>
<path d="M4234 4176 c-3 -8 0 -24 6 -36 10 -18 9 -24 -1 -31 -11 -7 -9 -10 9
-15 12 -4 22 -10 22 -15 0 -5 6 -6 13 -3 12 4 11 11 -2 39 -9 19 -22 34 -28
35 -16 0 -17 17 -1 22 9 3 9 6 0 12 -7 4 -15 1 -18 -8z"/>
<path d="M4298 4158 c5 -5 16 -8 23 -6 8 3 3 7 -10 11 -17 4 -21 3 -13 -5z"/>
<path d="M4178 4153 c7 -3 16 -2 19 1 4 3 -2 6 -13 5 -11 0 -14 -3 -6 -6z"/>
<path d="M4336 4133 c-11 -11 -6 -23 9 -23 8 0 15 4 15 9 0 13 -16 22 -24 14z"/>
<path d="M4180 4105 c0 -16 30 -55 42 -55 14 0 8 31 -7 36 -8 4 -15 12 -15 20
0 8 -4 14 -10 14 -5 0 -10 -7 -10 -15z"/>
<path d="M4460 4100 c0 -5 5 -10 10 -10 6 0 10 5 10 10 0 6 -4 10 -10 10 -5 0
-10 -4 -10 -10z"/>
<path d="M4470 4070 c0 -5 5 -10 11 -10 5 0 7 5 4 10 -3 6 -8 10 -11 10 -2 0
-4 -4 -4 -10z"/>
<path d="M4343 4063 c-18 -2 -33 -8 -33 -12 0 -12 48 -7 62 7 6 6 10 11 8 10
-3 0 -20 -3 -37 -5z"/>
<path d="M4430 4050 c0 -5 7 -10 16 -10 8 0 12 5 9 10 -3 6 -10 10 -16 10 -5
0 -9 -4 -9 -10z"/>
<path d="M4256 4017 c-8 -32 -8 -37 8 -37 8 0 14 10 14 25 0 33 -14 41 -22 12z"/>
<path d="M4332 4000 c14 -22 38 -34 47 -24 3 4 0 9 -6 11 -7 3 -13 11 -13 19
0 8 -9 14 -20 14 -18 0 -19 -3 -8 -20z"/>
<path d="M4450 4011 c0 -5 9 -11 20 -14 24 -6 27 8 4 17 -21 8 -24 8 -24 -3z"/>
<path d="M4403 4004 c9 -3 15 -9 12 -14 -3 -5 0 -12 6 -15 7 -5 10 0 7 11 -2
10 -12 20 -23 21 -16 1 -16 1 -2 -3z"/>
<path d="M4510 3999 c0 -5 5 -7 10 -4 6 3 10 8 10 11 0 2 -4 4 -10 4 -5 0 -10
-5 -10 -11z"/>
<path d="M4450 3970 c0 -5 7 -10 15 -10 8 0 15 5 15 10 0 6 -7 10 -15 10 -8 0
-15 -4 -15 -10z"/>
<path d="M4585 3950 c-3 -5 1 -10 9 -10 9 0 16 5 16 10 0 6 -4 10 -9 10 -6 0
-13 -4 -16 -10z"/>
<path d="M4560 3920 c0 -5 5 -10 10 -10 6 0 10 5 10 10 0 6 -4 10 -10 10 -5 0
-10 -4 -10 -10z"/>
<path d="M4492 3898 c-18 -18 -15 -23 17 -23 24 0 27 2 17 18 -13 20 -18 21
-34 5z"/>
<path d="M4600 3900 c-8 -5 -11 -10 -6 -10 4 0 1 -11 -7 -24 -15 -23 -15 -23
6 -13 13 6 23 20 23 34 1 12 1 23 0 23 0 0 -8 -5 -16 -10z"/>
<path d="M4710 3849 c0 -5 5 -7 10 -4 6 3 10 8 10 11 0 2 -4 4 -10 4 -5 0 -10
-5 -10 -11z"/>
<path d="M4480 3740 c0 -13 30 -13 50 0 11 7 7 10 -17 10 -18 0 -33 -4 -33
-10z"/>
<path d="M4563 3713 c-7 -3 -13 -11 -13 -19 0 -18 8 -18 26 0 15 16 7 26 -13
19z"/>
<path d="M4600 3680 c0 -5 5 -10 11 -10 5 0 7 5 4 10 -3 6 -8 10 -11 10 -2 0
-4 -4 -4 -10z"/>
<path d="M4550 3590 c-8 -5 -11 -12 -8 -16 4 -3 14 1 23 10 18 17 9 21 -15 6z"/>
<path d="M4555 3540 c-3 -5 -1 -10 4 -10 6 0 11 5 11 10 0 6 -2 10 -4 10 -3 0
-8 -4 -11 -10z"/>
<path d="M4550 3480 c0 -13 5 -18 14 -14 8 3 12 12 9 20 -8 21 -23 17 -23 -6z"/>
<path d="M4529 3422 c14 -11 31 -18 38 -15 17 7 17 23 1 23 -7 0 -24 3 -38 6
l-25 6 24 -20z"/>
<path d="M4500 3379 c0 -5 5 -7 10 -4 6 3 10 8 10 11 0 2 -4 4 -10 4 -5 0 -10
-5 -10 -11z"/>
<path d="M4476 3332 c-3 -5 1 -9 9 -9 8 0 15 4 15 9 0 4 -4 8 -9 8 -6 0 -12
-4 -15 -8z"/>
<path d="M7315 3240 c3 -5 8 -10 11 -10 2 0 4 5 4 10 0 6 -5 10 -11 10 -5 0
-7 -4 -4 -10z"/>
<path d="M4355 2880 c-3 -6 1 -7 9 -4 18 7 21 14 7 14 -6 0 -13 -4 -16 -10z"/>
<path d="M4244 2718 c0 -16 2 -28 2 -28 1 0 15 7 30 15 l29 15 -27 0 c-14 0
-28 6 -31 13 -2 6 -4 0 -3 -15z"/>
<path d="M3575 4225 c-4 -11 -11 -28 -16 -38 -8 -14 -5 -22 13 -37 13 -10 25
-14 27 -9 2 6 14 14 27 19 24 9 33 30 14 30 -5 0 -10 -4 -10 -8 0 -5 -13 -9
-30 -10 -33 -1 -39 12 -14 26 13 7 14 13 6 28 -10 18 -11 18 -17 -1z"/>
<path d="M3540 4220 c0 -5 5 -10 11 -10 5 0 7 5 4 10 -3 6 -8 10 -11 10 -2 0
-4 -4 -4 -10z"/>
<path d="M3675 4149 c-4 -6 -5 -12 -2 -15 2 -3 7 2 10 11 7 17 1 20 -8 4z"/>
<path d="M7097 2811 c-10 -12 -9 -14 6 -8 10 4 25 7 33 7 8 0 14 4 14 9 0 15
-40 9 -53 -8z"/>
<path d="M7115 2491 c-6 -12 22 -58 50 -81 12 -10 19 -10 27 -2 9 9 7 18 -8
38 -27 37 -60 58 -69 45z"/>
<path d="M3390 9155 c0 -31 11 -65 21 -65 5 0 6 15 2 33 -7 38 -23 60 -23 32z"/>
<path d="M3500 8699 c0 -5 5 -7 10 -4 6 3 10 8 10 11 0 2 -4 4 -10 4 -5 0 -10
-5 -10 -11z"/>
<path d="M3506 8653 c-9 -23 -7 -24 16 -12 17 9 24 8 34 -5 7 -10 15 -13 18
-8 7 12 -11 27 -41 34 -14 4 -24 0 -27 -9z"/>
<path d="M4174 8615 l-31 -14 8 -58 c9 -66 22 -79 87 -89 40 -6 47 -4 63 17
44 56 35 114 -21 141 -42 20 -65 21 -106 3z m72 -61 c-4 -9 -9 -15 -11 -12 -3
3 -3 13 1 22 4 9 9 15 11 12 3 -3 3 -13 -1 -22z m-40 -10 c-3 -9 -6 -20 -6
-25 0 -5 -4 -9 -10 -9 -5 0 -10 11 -10 25 0 16 6 25 16 25 11 0 14 -5 10 -16z"/>
<path d="M3670 8600 c0 -5 5 -10 11 -10 5 0 7 5 4 10 -3 6 -8 10 -11 10 -2 0
-4 -4 -4 -10z"/>
<path d="M4385 8330 c-3 -5 -1 -10 4 -10 6 0 11 5 11 10 0 6 -2 10 -4 10 -3 0
-8 -4 -11 -10z"/>
<path d="M2195 8270 c-3 -5 -2 -10 4 -10 5 0 13 5 16 10 3 6 2 10 -4 10 -5 0
-13 -4 -16 -10z"/>
<path d="M2095 8220 c-3 -5 -1 -10 4 -10 6 0 11 5 11 10 0 6 -2 10 -4 10 -3 0
-8 -4 -11 -10z"/>
<path d="M2265 8220 c-3 -5 -1 -10 4 -10 6 0 11 5 11 10 0 6 -2 10 -4 10 -3 0
-8 -4 -11 -10z"/>
<path d="M2077 8183 c-4 -3 -7 -11 -7 -17 0 -6 5 -5 12 2 6 6 9 14 7 17 -3 3
-9 2 -12 -2z"/>
<path d="M2050 8129 c0 -11 5 -17 10 -14 6 3 10 13 10 21 0 8 -4 14 -10 14 -5
0 -10 -9 -10 -21z"/>
<path d="M2012 8090 c-7 -11 -9 -20 -4 -20 10 0 32 22 32 32 0 15 -15 8 -28
-12z"/>
<path d="M5397 7138 c-6 -21 -2 -36 7 -27 10 11 16 49 8 49 -5 0 -12 -10 -15
-22z"/>
<path d="M5515 6961 c-3 -12 -13 -21 -21 -21 -8 0 -14 -4 -14 -10 0 -5 6 -10
13 -10 15 0 44 47 35 56 -4 3 -9 -4 -13 -15z"/>
<path d="M1790 6890 c0 -5 5 -10 10 -10 6 0 10 5 10 10 0 6 -4 10 -10 10 -5 0
-10 -4 -10 -10z"/>
<path d="M1790 6860 c0 -5 5 -10 10 -10 6 0 10 5 10 10 0 6 -4 10 -10 10 -5 0
-10 -4 -10 -10z"/>
<path d="M5585 6850 c-6 -10 29 -27 78 -37 39 -8 36 22 -4 36 -40 14 -66 14
-74 1z"/>
<path d="M5457 6834 c-9 -10 2 -24 19 -24 8 0 14 7 14 15 0 15 -21 21 -33 9z"/>
<path d="M1698 6823 c7 -3 16 -2 19 1 4 3 -2 6 -13 5 -11 0 -14 -3 -6 -6z"/>
<path d="M5095 6800 c-3 -6 1 -13 10 -16 19 -8 30 0 20 15 -8 14 -22 14 -30 1z"/>
<path d="M5330 6555 c-7 -9 -8 -15 -2 -15 5 0 12 7 16 15 3 8 4 15 2 15 -2 0
-9 -7 -16 -15z"/>
<path d="M5065 6550 c3 -5 11 -10 16 -10 6 0 7 5 4 10 -3 6 -11 10 -16 10 -6
0 -7 -4 -4 -10z"/>
<path d="M5305 6520 c-3 -5 -2 -10 4 -10 5 0 13 5 16 10 3 6 2 10 -4 10 -5 0
-13 -4 -16 -10z"/>
<path d="M5117 6509 c7 -7 15 -10 18 -7 3 3 -2 9 -12 12 -14 6 -15 5 -6 -5z"/>
<path d="M5218 6513 c7 -3 16 -2 19 1 4 3 -2 6 -13 5 -11 0 -14 -3 -6 -6z"/>
<path d="M5260 6510 c0 -5 5 -10 10 -10 6 0 10 5 10 10 0 6 -4 10 -10 10 -5 0
-10 -4 -10 -10z"/>
<path d="M6566 5556 c-3 -13 -9 -31 -12 -40 -3 -9 -2 -16 3 -16 11 0 33 44 33
65 0 24 -17 17 -24 -9z"/>
<path d="M6759 5466 c-2 -2 -26 -6 -54 -9 -74 -7 -99 -21 -160 -84 l-54 -57
18 -31 c12 -19 17 -41 14 -61 -7 -47 20 -99 66 -129 58 -36 54 -54 -10 -54
-19 0 -46 0 -62 0 -39 1 -77 -10 -77 -22 0 -6 6 -6 19 1 27 14 34 13 27 -5 -4
-12 0 -14 19 -9 20 5 24 3 19 -10 -4 -10 1 -18 12 -23 28 -10 41 -26 36 -42
-3 -8 1 -12 9 -9 8 3 14 13 14 24 0 14 6 18 23 17 14 -2 22 3 22 12 0 8 5 15
10 15 6 0 10 -9 10 -21 0 -11 -4 -18 -9 -14 -13 8 -41 -23 -41 -46 0 -10 5
-19 11 -19 17 0 54 43 55 63 3 56 3 56 39 52 25 -4 37 0 44 13 7 11 10 12 11
3 0 -7 6 -11 15 -8 8 4 17 2 20 -3 9 -15 -46 -32 -82 -25 -41 7 -42 0 -2 -21
23 -11 34 -13 42 -5 6 6 17 11 25 11 8 0 21 9 30 20 14 17 22 19 50 11 37 -11
45 -2 57 64 4 22 16 48 27 59 19 18 19 19 0 40 -11 13 -23 51 -31 101 -11 67
-19 86 -46 116 -18 20 -36 46 -39 57 -7 22 -62 42 -77 28z m136 -435 c-8 -15
-42 -14 -51 1 -4 7 -3 8 4 4 7 -4 20 -3 29 3 20 11 28 7 18 -8z"/>
<path d="M3208 5363 c7 -3 16 -2 19 1 4 3 -2 6 -13 5 -11 0 -14 -3 -6 -6z"/>
<path d="M3250 5335 c0 -8 5 -15 10 -15 6 0 10 7 10 15 0 8 -4 15 -10 15 -5 0
-10 -7 -10 -15z"/>
<path d="M4930 5300 c-8 -5 -10 -10 -5 -10 6 0 17 5 25 10 8 5 11 10 5 10 -5
0 -17 -5 -25 -10z"/>
<path d="M3308 5293 c6 -2 18 -2 25 0 6 3 1 5 -13 5 -14 0 -19 -2 -12 -5z"/>
<path d="M5840 5161 c0 -5 7 -12 16 -15 14 -5 15 -4 4 9 -14 17 -20 19 -20 6z"/>
<path d="M6045 5149 c-10 -15 3 -25 16 -12 7 7 7 13 1 17 -6 3 -14 1 -17 -5z"/>
<path d="M6080 5141 c0 -10 39 -45 44 -40 3 2 -6 14 -20 26 -13 12 -24 18 -24
14z"/>
<path d="M6164 5129 c-19 -22 -19 -22 2 -9 19 11 27 11 60 -5 22 -11 44 -19
49 -20 6 0 21 -6 33 -13 13 -8 26 -12 28 -9 8 8 -40 34 -74 40 -18 4 -40 14
-48 22 -20 20 -27 19 -50 -6z"/>
<path d="M6425 5130 c3 -5 8 -10 11 -10 2 0 4 5 4 10 0 6 -5 10 -11 10 -5 0
-7 -4 -4 -10z"/>
<path d="M6016 5105 c-11 -8 -16 -18 -12 -22 3 -4 16 3 29 15 24 25 12 29 -17
7z"/>
<path d="M6397 5093 c-4 -3 -7 -11 -7 -17 0 -6 5 -5 12 2 6 6 9 14 7 17 -3 3
-9 2 -12 -2z"/>
<path d="M6420 5085 c0 -15 18 -40 24 -34 3 3 -1 14 -9 25 -8 10 -14 15 -15 9z"/>
<path d="M5058 5074 c-4 -3 0 -13 8 -21 8 -8 12 -19 9 -24 -4 -5 -1 -9 4 -9 6
0 11 6 11 13 0 19 -24 49 -32 41z"/>
<path d="M5950 5033 c-19 -33 -20 -37 -5 -52 15 -15 16 -15 9 2 -3 9 -1 24 6
32 7 8 9 15 4 15 -5 1 2 10 15 20 16 14 19 20 8 20 -8 0 -25 -16 -37 -37z"/>
<path d="M6070 5059 c0 -5 5 -7 10 -4 6 3 10 8 10 11 0 2 -4 4 -10 4 -5 0 -10
-5 -10 -11z"/>
<path d="M6469 4949 c-19 -16 -20 -18 -4 -10 34 17 51 31 39 31 -7 0 -22 -9
-35 -21z"/>
<path d="M4915 4946 c-19 -13 -18 -14 8 -13 15 1 27 8 27 15 0 16 -12 15 -35
-2z"/>
<path d="M6540 4920 c0 -5 5 -10 11 -10 5 0 7 5 4 10 -3 6 -8 10 -11 10 -2 0
-4 -4 -4 -10z"/>
<path d="M5950 4880 c0 -5 5 -10 10 -10 6 0 10 5 10 10 0 6 -4 10 -10 10 -5 0
-10 -4 -10 -10z"/>
<path d="M5980 4880 c0 -5 5 -10 11 -10 5 0 7 5 4 10 -3 6 -8 10 -11 10 -2 0
-4 -4 -4 -10z"/>
<path d="M6872 4670 c-33 -57 -29 -92 13 -129 20 -17 43 -31 51 -31 30 0 71
30 84 61 12 27 11 36 -6 66 -21 40 -45 58 -89 66 -27 5 -33 1 -53 -33z m63
-22 c-5 -13 -55 -41 -55 -31 0 11 27 31 57 42 1 1 0 -5 -2 -11z m35 -29 c0 -5
-4 -8 -9 -5 -5 3 -14 -1 -21 -9 -7 -8 -17 -15 -23 -15 -5 0 -2 9 8 20 19 21
45 27 45 9z"/>
<path d="M5545 4680 c-18 -8 -17 -9 7 -9 15 -1 30 4 33 9 7 12 -12 12 -40 0z"/>
<path d="M5448 4663 c6 -2 18 -2 25 0 6 3 1 5 -13 5 -14 0 -19 -2 -12 -5z"/>
<path d="M5630 4659 c0 -5 5 -7 10 -4 6 3 10 8 10 11 0 2 -4 4 -10 4 -5 0 -10
-5 -10 -11z"/>
<path d="M5467 4643 c-4 -3 -2 -12 4 -20 9 -10 7 -13 -10 -13 -18 0 -21 -4
-16 -22 6 -22 5 -22 -8 1 -14 24 -32 15 -22 -11 3 -7 0 -20 -5 -28 -8 -12 -11
-13 -19 -1 -5 7 -6 22 -4 32 6 23 2 23 -43 4 -19 -8 -41 -12 -48 -9 -21 8 -57
-15 -54 -34 2 -13 -3 -16 -22 -14 -24 4 -25 3 -5 -12 25 -19 33 -20 51 -1 20
19 41 20 25 1 -6 -7 -9 -21 -5 -30 3 -9 1 -16 -6 -16 -6 0 -8 5 -4 11 4 7 1
10 -7 7 -8 -3 -15 -12 -17 -21 -4 -22 32 -23 72 -2 16 9 31 13 34 10 3 -3 0
-5 -6 -5 -7 0 -12 -7 -12 -15 0 -7 -7 -18 -16 -23 -12 -7 -13 -11 -5 -16 7 -4
19 -2 27 5 12 10 20 10 35 1 16 -10 19 -9 19 3 0 9 -7 18 -15 21 -20 8 -20 64
0 64 9 0 12 -6 9 -15 -9 -23 22 -18 45 7 11 11 18 25 15 29 -2 4 0 10 6 14 6
4 10 -10 10 -36 0 -30 -6 -50 -22 -66 -12 -13 -19 -25 -16 -28 9 -10 70 75 65
89 -3 8 2 21 12 30 30 27 57 16 29 -12 -9 -9 -8 -12 5 -12 10 0 17 8 17 20 0
12 10 24 24 29 28 11 40 37 20 45 -8 3 -14 -1 -14 -9 0 -20 -26 -19 -34 2 -5
12 -10 13 -18 5 -9 -9 -18 -4 -38 18 -15 17 -30 27 -33 23z"/>
<path d="M5214 4606 c11 -9 27 -16 35 -16 21 0 2 16 -29 24 -24 7 -24 6 -6 -8z"/>
<path d="M5430 4480 c-10 -6 -11 -12 -5 -19 6 -6 14 -4 22 4 15 17 3 27 -17
15z"/>
<path d="M5550 4469 c0 -5 5 -7 10 -4 6 3 10 8 10 11 0 2 -4 4 -10 4 -5 0 -10
-5 -10 -11z"/>
<path d="M5213 4433 c9 -2 23 -2 30 0 6 3 -1 5 -18 5 -16 0 -22 -2 -12 -5z"/>
<path d="M5375 4300 c-3 -5 -1 -10 4 -10 6 0 11 5 11 10 0 6 -2 10 -4 10 -3 0
-8 -4 -11 -10z"/>
<path d="M3420 3775 c-14 -8 -20 -14 -14 -15 5 0 19 7 30 15 24 18 16 19 -16
0z"/>
<path d="M5939 2272 c13 -20 20 -37 15 -42 -5 -5 -51 -16 -102 -25 -98 -17
-131 -35 -158 -87 -8 -15 -14 -38 -14 -53 0 -27 -18 -33 -38 -13 -18 18 -15
-2 12 -67 13 -33 30 -61 37 -63 8 -2 23 -7 34 -12 11 -4 28 -11 38 -14 34 -11
18 -37 -40 -62 -66 -29 -103 -60 -103 -84 0 -22 44 -70 64 -70 16 0 66 55 66
73 0 18 50 69 63 64 7 -2 15 -20 18 -40 6 -39 33 -77 56 -77 7 0 21 8 31 18
26 26 55 32 83 16 17 -9 44 -11 90 -7 53 4 72 2 90 -11 13 -9 26 -16 30 -16
17 0 130 148 139 182 10 37 29 63 51 70 19 6 0 48 -26 58 -18 7 -25 19 -30 53
-8 51 -38 107 -58 107 -8 0 -27 12 -42 26 -20 18 -34 24 -51 20 -16 -4 -31 1
-50 19 -25 23 -29 24 -50 10 -41 -27 -73 -19 -145 35 l-34 25 24 -33z"/>
<path d="M6494 1805 c-4 -9 -2 -21 4 -27 16 -16 47 -5 47 17 0 26 -42 34 -51
10z"/>
<path d="M6143 1528 c-54 -26 -42 -110 18 -122 47 -9 76 2 88 34 25 74 -33
123 -106 88z"/>
<path d="M6140 1335 c0 -9 5 -15 11 -13 6 2 11 8 11 13 0 5 -5 11 -11 13 -6 2
-11 -4 -11 -13z"/>
</g>
</svg>
